<svg width="217" height="219" viewBox="0 0 217 219" fill="none" xmlns="http://www.w3.org/2000/svg">
<rect width="217" height="219" fill="#AB0506"/>
<path d="M49.632 157.352C48.224 156.52 47.328 155.624 46.944 154.664C46.56 153.768 46.368 153 46.368 152.36C46.368 150.568 47.008 148.136 48.288 145.064C49.632 141.992 51.392 138.504 53.568 134.6C55.808 130.632 58.272 126.536 60.96 122.312C58.592 122.12 56.576 121.992 54.912 121.928C53.248 121.864 51.808 121.832 50.592 121.832H47.232C47.936 119.976 49.152 118.696 50.88 117.992C52.672 117.224 54.784 116.84 57.216 116.84C58.304 116.84 59.424 116.904 60.576 117.032C61.728 117.16 62.912 117.32 64.128 117.512C67.392 112.584 70.72 107.816 74.112 103.208C77.568 98.536 80.768 94.408 83.712 90.824C86.72 87.176 89.216 84.424 91.2 82.568C93.056 80.776 94.592 79.88 95.808 79.88C96.512 79.88 97.28 80.168 98.112 80.744C99.008 81.256 99.936 81.992 100.896 82.952C100.256 83.464 99.424 84.84 98.4 87.08C97.44 89.256 96.384 92.008 95.232 95.336C94.144 98.664 93.056 102.312 91.968 106.28C90.88 110.248 89.856 114.312 88.896 118.472C88 122.568 87.264 126.472 86.688 130.184C86.176 133.896 85.92 137.16 85.92 139.976C85.92 142.408 86.176 144.296 86.688 145.64C87.264 146.984 88.192 147.656 89.472 147.656C91.136 147.656 93.024 146.504 95.136 144.2C97.248 141.896 99.552 138.312 102.048 133.448L103.008 134.408C101.088 139.528 98.624 143.72 95.616 146.984C92.672 150.248 89.6 151.88 86.4 151.88C83.776 151.88 81.856 150.728 80.64 148.424C79.488 146.056 78.912 142.92 78.912 139.016C78.912 136.968 79.04 134.728 79.296 132.296C79.616 129.864 80.032 127.336 80.544 124.712C77.728 124.264 75.136 123.912 72.768 123.656C70.464 123.336 68.32 123.048 66.336 122.792C63.328 128.36 60.384 134.088 57.504 139.976C54.688 145.864 52.064 151.656 49.632 157.352ZM81.216 121.352C82.176 117.128 83.296 112.872 84.576 108.584C85.856 104.232 87.2 100.104 88.608 96.2C90.08 92.296 91.456 88.872 92.736 85.928C90.752 87.144 88.448 89.32 85.824 92.456C83.264 95.528 80.544 99.304 77.664 103.784C74.784 108.2 71.84 113.064 68.832 118.376C71.008 118.824 73.152 119.336 75.264 119.912C77.44 120.424 79.424 120.904 81.216 121.352ZM123.473 157.352C122.577 157.352 121.457 157.128 120.113 156.68C118.833 156.296 117.681 155.56 116.657 154.472C115.697 153.384 115.217 151.784 115.217 149.672C115.217 147.816 115.601 145.384 116.369 142.376C117.201 139.368 118.225 136.008 119.441 132.296C120.657 128.52 121.873 124.584 123.089 120.488C124.305 116.328 125.297 112.168 126.065 108.008C126.897 103.848 127.312 99.848 127.312 96.008C127.312 93.64 127.217 91.432 127.025 89.384C126.897 87.336 126.417 85.704 125.585 84.488C124.817 83.208 123.473 82.568 121.553 82.568C119.761 82.568 118.225 83.112 116.945 84.2C115.729 85.224 114.705 86.568 113.873 88.232C113.105 89.896 112.529 91.656 112.145 93.512C111.825 95.368 111.665 97.096 111.665 98.696C111.665 99.72 111.729 100.68 111.857 101.576C112.049 102.408 112.273 103.176 112.529 103.88C110.033 103.88 108.273 103.208 107.249 101.864C106.225 100.456 105.713 98.824 105.713 96.968C105.713 94.984 106.161 93 107.057 91.016C108.017 89.032 109.297 87.208 110.897 85.544C112.561 83.816 114.449 82.44 116.561 81.416C118.673 80.392 120.913 79.88 123.281 79.88C127.249 79.88 130.193 81.448 132.113 84.584C134.097 87.656 135.089 91.784 135.089 96.968C135.089 100.68 134.673 104.584 133.841 108.68C133.009 112.712 131.985 116.744 130.769 120.776C129.553 124.808 128.305 128.68 127.025 132.392C125.809 136.104 124.785 139.528 123.953 142.664C123.121 145.8 122.705 148.456 122.705 150.632C122.705 151.72 122.865 152.616 123.185 153.32C123.569 154.024 124.305 154.376 125.393 154.376C127.185 154.376 129.265 153.448 131.633 151.592C134.001 149.8 136.433 147.336 138.929 144.2C141.489 141 143.953 137.416 146.321 133.448C148.753 129.48 150.929 125.352 152.849 121.064C154.769 116.712 156.305 112.456 157.457 108.296C158.609 104.136 159.185 100.296 159.185 96.776C159.185 93.576 158.705 91.24 157.745 89.768C156.785 88.232 155.505 87.24 153.905 86.792C154.801 85.256 155.729 84.136 156.689 83.432C157.713 82.728 158.641 82.376 159.473 82.376C160.817 82.376 162.129 83.24 163.409 84.968C164.689 86.696 165.329 89.384 165.329 93.032C165.329 96.552 164.657 100.552 163.312 105.032C162.033 109.512 160.273 114.184 158.033 119.048C155.793 123.848 153.233 128.52 150.353 133.064C147.473 137.608 144.465 141.704 141.329 145.352C138.193 149 135.089 151.912 132.017 154.088C128.945 156.264 126.097 157.352 123.473 157.352Z" fill="#CFC5B6"/>
</svg>
