<svg width="165" height="165" viewBox="0 0 165 165" fill="none" xmlns="http://www.w3.org/2000/svg">
<circle cx="82.5" cy="82.5" r="82.5" fill="#AB0506"/>
<path d="M45.088 108.568C44.1493 108.013 43.552 107.416 43.296 106.776C43.04 106.179 42.912 105.667 42.912 105.24C42.912 104.045 43.3387 102.424 44.192 100.376C45.088 98.328 46.2613 96.0027 47.712 93.4C49.2053 90.7547 50.848 88.024 52.64 85.208C51.0613 85.08 49.7173 84.9947 48.608 84.952C47.4987 84.9093 46.5387 84.888 45.728 84.888H43.488C43.9573 83.6507 44.768 82.7973 45.92 82.328C47.1147 81.816 48.5227 81.56 50.144 81.56C50.8693 81.56 51.616 81.6027 52.384 81.688C53.152 81.7733 53.9413 81.88 54.752 82.008C56.928 78.7227 59.1467 75.544 61.408 72.472C63.712 69.3573 65.8453 66.6053 67.808 64.216C69.8133 61.784 71.4773 59.9493 72.8 58.712C74.0373 57.5173 75.0613 56.92 75.872 56.92C76.3413 56.92 76.8533 57.112 77.408 57.496C78.0053 57.8373 78.624 58.328 79.264 58.968C78.8373 59.3093 78.2827 60.2267 77.6 61.72C76.96 63.1707 76.256 65.0053 75.488 67.224C74.7627 69.4427 74.0373 71.8747 73.312 74.52C72.5867 77.1653 71.904 79.8747 71.264 82.648C70.6667 85.3787 70.176 87.9813 69.792 90.456C69.4507 92.9307 69.28 95.1067 69.28 96.984C69.28 98.6053 69.4507 99.864 69.792 100.76C70.176 101.656 70.7947 102.104 71.648 102.104C72.7573 102.104 74.016 101.336 75.424 99.8C76.832 98.264 78.368 95.8747 80.032 92.632L80.672 93.272C79.392 96.6853 77.7493 99.48 75.744 101.656C73.7813 103.832 71.7333 104.92 69.6 104.92C67.8507 104.92 66.5707 104.152 65.76 102.616C64.992 101.037 64.608 98.9467 64.608 96.344C64.608 94.9787 64.6933 93.4853 64.864 91.864C65.0773 90.2427 65.3547 88.5573 65.696 86.808C63.8187 86.5093 62.0907 86.2747 60.512 86.104C58.976 85.8907 57.5467 85.6987 56.224 85.528C54.2187 89.24 52.256 93.0587 50.336 96.984C48.4587 100.909 46.7093 104.771 45.088 108.568ZM66.144 84.568C66.784 81.752 67.5307 78.9147 68.384 76.056C69.2373 73.1547 70.1333 70.4027 71.072 67.8C72.0533 65.1973 72.9707 62.9147 73.824 60.952C72.5013 61.7627 70.9653 63.2133 69.216 65.304C67.5093 67.352 65.696 69.8693 63.776 72.856C61.856 75.8 59.8933 79.0427 57.888 82.584C59.3387 82.8827 60.768 83.224 62.176 83.608C63.6267 83.9493 64.9493 84.2693 66.144 84.568ZM94.315 108.568C93.7177 108.568 92.971 108.419 92.075 108.12C91.2217 107.864 90.4537 107.373 89.771 106.648C89.131 105.923 88.811 104.856 88.811 103.448C88.811 102.211 89.067 100.589 89.579 98.584C90.1337 96.5787 90.8163 94.3387 91.627 91.864C92.4377 89.3467 93.2483 86.7227 94.059 83.992C94.8697 81.2187 95.531 78.4453 96.043 75.672C96.5977 72.8987 96.875 70.232 96.875 67.672C96.875 66.0933 96.811 64.6213 96.683 63.256C96.5977 61.8907 96.2777 60.8027 95.723 59.992C95.211 59.1387 94.315 58.712 93.035 58.712C91.8403 58.712 90.8163 59.0747 89.963 59.8C89.1523 60.4827 88.4697 61.3787 87.915 62.488C87.403 63.5973 87.019 64.7707 86.763 66.008C86.5497 67.2453 86.443 68.3973 86.443 69.464C86.443 70.1467 86.4857 70.7867 86.571 71.384C86.699 71.9387 86.8483 72.4507 87.019 72.92C85.355 72.92 84.1817 72.472 83.499 71.576C82.8163 70.6373 82.475 69.5493 82.475 68.312C82.475 66.9893 82.7737 65.6667 83.371 64.344C84.011 63.0213 84.8643 61.8053 85.931 60.696C87.0403 59.544 88.299 58.6267 89.707 57.944C91.115 57.2613 92.6083 56.92 94.187 56.92C96.8323 56.92 98.795 57.9653 100.075 60.056C101.398 62.104 102.059 64.856 102.059 68.312C102.059 70.7867 101.782 73.3893 101.227 76.12C100.672 78.808 99.9897 81.496 99.179 84.184C98.3683 86.872 97.5363 89.4533 96.683 91.928C95.8723 94.4027 95.1897 96.6853 94.635 98.776C94.0803 100.867 93.803 102.637 93.803 104.088C93.803 104.813 93.9097 105.411 94.123 105.88C94.379 106.349 94.8697 106.584 95.595 106.584C96.7897 106.584 98.1763 105.965 99.755 104.728C101.334 103.533 102.955 101.891 104.619 99.8C106.326 97.6667 107.968 95.2773 109.547 92.632C111.168 89.9867 112.619 87.2347 113.899 84.376C115.179 81.4747 116.203 78.6373 116.971 75.864C117.739 73.0907 118.123 70.5307 118.123 68.184C118.123 66.0507 117.803 64.4933 117.163 63.512C116.523 62.488 115.67 61.8267 114.603 61.528C115.2 60.504 115.819 59.7573 116.459 59.288C117.142 58.8187 117.76 58.584 118.315 58.584C119.211 58.584 120.086 59.16 120.939 60.312C121.792 61.464 122.219 63.256 122.219 65.688C122.219 68.0347 121.771 70.7013 120.875 73.688C120.022 76.6747 118.848 79.7893 117.355 83.032C115.862 86.232 114.155 89.3467 112.235 92.376C110.315 95.4053 108.31 98.136 106.219 100.568C104.128 103 102.059 104.941 100.011 106.392C97.963 107.843 96.0643 108.568 94.315 108.568Z" fill="#CFC5B6"/>
</svg>
